<?xml version="1.0" encoding="utf-8"?>
<!-- Generator: Adobe Illustrator 23.0.3, SVG Export Plug-In . SVG Version: 6.00 Build 0)  -->
<svg version="1.1" id="Capa_1" xmlns="http://www.w3.org/2000/svg" xmlns:xlink="http://www.w3.org/1999/xlink" x="0px" y="0px"
	 viewBox="0 0 64 64" style="enable-background:new 0 0 64 64;" xml:space="preserve">
<style type="text/css">
	.st0{fill:#FFFFFF;}
</style>
<g>
	<path class="st0" d="M32,0C18.1,0,6.8,11.3,6.8,25.1c0,13.7,11,24.8,24.6,25.1V64l19.1-22c0.3-0.3,0.5-0.6,0.8-0.9
		c0.1,0,0.1-0.1,0.1-0.2c3.5-4.3,5.6-9.8,5.6-15.8C57.2,11.3,45.9,0,32,0z M22.1,34.3c0,0.9-0.7,1.6-1.6,1.6h-3.7
		c-0.9,0-1.6-0.7-1.6-1.6v-3.7c0-0.9,0.7-1.6,1.6-1.6h3.7c0.9,0,1.6,0.7,1.6,1.6V34.3z M30.6,34.3c0,0.9-0.7,1.6-1.6,1.6h-3.7
		c-0.9,0-1.6-0.7-1.6-1.6V22.5c0-0.9,0.7-1.6,1.6-1.6v0H29c0.9,0,1.6,0.7,1.6,1.6V34.3z M39.2,34.3c0,0.9-0.7,1.6-1.6,1.6h-3.7
		c-0.9,0-1.6-0.7-1.6-1.6V27c0-0.9,0.7-1.6,1.6-1.6h3.7c0.9,0,1.6,0.7,1.6,1.6V34.3z M47.9,34.3c0,0.9-0.7,1.6-1.6,1.6h-3.7
		c-0.9,0-1.6-0.7-1.6-1.6V16.4c0-0.9,0.7-1.6,1.6-1.6h3.7c0.9,0,1.6,0.7,1.6,1.6V34.3z"/>
</g>
</svg>
