<?xml version="1.0" encoding="utf-8"?>
<!-- Generator: Adobe Illustrator 23.0.3, SVG Export Plug-In . SVG Version: 6.00 Build 0)  -->
<svg version="1.1" xmlns="http://www.w3.org/2000/svg" xmlns:xlink="http://www.w3.org/1999/xlink" x="0px" y="0px"
	 viewBox="0 0 24 24" style="enable-background:new 0 0 24 24;" xml:space="preserve">
<style type="text/css">
	.st0{fill:#FFFFFF;}
</style>
<g id="Capa_2">
</g>
<g id="Capa_1">
	<path class="st0" d="M22.6,12.3c0-0.8-0.1-1.5-0.2-2.3H12v4.3h5.9c-0.3,1.4-1,2.5-2.2,3.3v2.8h3.6C21.4,18.4,22.6,15.6,22.6,12.3z"
		/>
	<path class="st0" d="M12,23c3,0,5.5-1,7.3-2.7l-3.6-2.8c-1,0.7-2.2,1.1-3.7,1.1c-2.9,0-5.3-1.9-6.2-4.5H2.2v2.8
		C4,20.5,7.7,23,12,23z"/>
	<path class="st0" d="M5.8,14.1c-0.2-0.7-0.3-1.4-0.3-2.1s0.1-1.4,0.3-2.1V7.1H2.2C1.4,8.6,1,10.2,1,12s0.4,3.4,1.2,4.9L5,14.7
		C5,14.7,5.8,14.1,5.8,14.1z"/>
	<path class="st0" d="M12,5.4c1.6,0,3.1,0.6,4.2,1.6l3.1-3.2C17.5,2.1,15,1,12,1C7.7,1,4,3.5,2.2,7.1l3.7,2.8
		C6.7,7.3,9.1,5.4,12,5.4z"/>
</g>
</svg>
