<?xml version="1.0" encoding="utf-8"?>
<!-- Generator: Adobe Illustrator 23.0.3, SVG Export Plug-In . SVG Version: 6.00 Build 0)  -->
<svg version="1.0" xmlns="http://www.w3.org/2000/svg" xmlns:xlink="http://www.w3.org/1999/xlink" x="0px" y="0px"
	 viewBox="0 0 133.4 133.4" enable-background="new 0 0 133.4 133.4" xml:space="preserve">
<g id="Capa_2">
</g>
<g id="Layer_1">
	<g>
		<g>
			<path fill="#FFFFFF" d="M73.3,27.1c0,0-2.3-0.3-6.8-0.3c-4.5-0.1-6.8,0.3-6.8,0.3l0,0l-0.2-3.3l3.1-0.3L61.5,6.8H57V2.2l0,0
				c0,0,0.8-0.7,9.6-0.7c8.8,0,9.6,0.7,9.6,0.7l0,0v4.6h-4.5l-1.1,16.7l3.1,0.3L73.3,27.1L73.3,27.1z"/>
			<path fill="#FFFFFF" d="M57.9,27.5c0,0-2.2,0.6-6.3,2.3c-4.2,1.7-6.2,3-6.2,3l0,0l-1.5-3l2.7-1.4l-7.2-15l-4.2,1.8l-1.7-4.2l0,0
				c0,0,0.5-0.9,8.6-4.4c8.1-3.4,9.1-3.1,9.1-3.1l0,0l1.7,4.3l-4.2,1.7L54,25.3l2.9-1L57.9,27.5L57.9,27.5z"/>
			<path fill="#FFFFFF" d="M43.9,34c0,0-1.8,1.4-5,4.6c-3.2,3.2-4.5,5.2-4.5,5.2l0,0l-2.5-2.2l2-2.4l-12.3-11l-3.2,3.3l-3.2-3.2l0,0
				c0,0,0.1-1.1,6.3-7.4c6.2-6.4,7.2-6.5,7.2-6.5l0,0l3.2,3.2l-3.2,3.3l10.8,12.6l2.4-2L43.9,34L43.9,34z"/>
			<path fill="#FFFFFF" d="M33.4,45.3c0,0-1.2,2-2.9,6.2c-1.8,4.2-2.3,6.5-2.3,6.5l0,0l-3.1-1L26,54l-15.5-5.3l-1.8,4.3l-4.2-1.7
				l0,0c0,0-0.3-1,3.1-9.4c3.4-8.3,4.2-8.7,4.2-8.7l0,0l4.2,1.7l-1.7,4.3L29,46.6l1.5-2.8L33.4,45.3L33.4,45.3z"/>
			<path fill="#FFFFFF" d="M27.8,59.9c0,0-0.3,2.4-0.4,6.9c0,4.6,0.4,6.9,0.4,6.9l0,0L24.6,74l-0.3-3.1L8,71.9v4.6H3.5l0,0
				c0,0-0.7-0.8-0.7-9.8c0-9,0.7-9.8,0.7-9.8l0,0H8v4.7l16.3,1.1l0.3-3.1L27.8,59.9L27.8,59.9z"/>
			<path fill="#FFFFFF" d="M28.2,75.5c0,0,0.5,2.3,2.2,6.4c1.6,4.2,2.9,6.3,2.9,6.3l0,0l-2.9,1.5L29,86.9l-14.6,7.4l1.7,4.3
				l-4.2,1.8l0,0c0,0-0.8-0.6-4.2-8.8c-3.4-8.3-3.1-9.3-3.1-9.3l0,0l4.2-1.7l1.8,4.3L26,79.5l-0.9-3L28.2,75.5L28.2,75.5z"/>
			<path fill="#FFFFFF" d="M34.4,89.8c0,0,1.4,1.9,4.5,5.2c3.2,3.2,5.1,4.6,5.1,4.6l0,0l-2.2,2.6l-2.4-2l-10.8,12.6l3.2,3.3
				l-3.2,3.2l0,0c0,0-1.1-0.1-7.2-6.5c-6.2-6.4-6.3-7.4-6.3-7.4l0,0l3.2-3.2l3.2,3.3l12.3-11l-2-2.4L34.4,89.8L34.4,89.8z"/>
			<path fill="#FFFFFF" d="M45.5,100.7c0,0,1.9,1.2,6,2.9c4.2,1.8,6.5,2.4,6.5,2.4l0,0l-1.1,3.1l-2.9-0.9L48.7,124l4.2,1.8l-1.8,4.2
				l0,0c0,0-1,0.3-9.1-3.1c-8.1-3.4-8.6-4.3-8.6-4.3l0,0l1.7-4.2l4.2,1.8l7.2-15l-2.8-1.5L45.5,100.7L45.5,100.7z"/>
			<path fill="#FFFFFF" d="M59.8,106.4c0,0,2.2,0.3,6.7,0.4c4.5,0.1,6.8-0.4,6.8-0.4l0,0l0.3,3.4l-3.2,0.2l1.1,16.7h4.6v4.6l0,0
				c0,0-0.8,0.6-9.6,0.6c-8.8,0-9.6-0.6-9.6-0.6l0,0v-4.6h4.5l1.1-16.7l-3.1-0.2L59.8,106.4L59.8,106.4z"/>
			<path fill="#FFFFFF" d="M75.2,106.1c0,0,2.2-0.6,6.4-2.3c4.2-1.7,6.1-3,6.1-3l0,0l1.5,3l-2.8,1.4l7.2,15l4.2-1.8l1.7,4.2l0,0
				c0,0-0.5,0.9-8.6,4.4c-8.1,3.4-9.1,3.1-9.1,3.1l0,0l-1.7-4.2l4.2-1.7l-5.2-15.9l-3,1L75.2,106.1L75.2,106.1z"/>
			<path fill="#FFFFFF" d="M89.4,99.7c0,0,1.9-1.4,5-4.6c3.2-3.2,4.5-5.2,4.5-5.2l0,0l2.5,2.2l-2,2.4l12.3,11l3.2-3.3l3.2,3.2l0,0
				c0,0-0.1,1.1-6.3,7.4c-6.2,6.4-7.2,6.4-7.2,6.4l0,0l-3.2-3.2l3.2-3.3l-10.8-12.6l-2.4,2L89.4,99.7L89.4,99.7z"/>
			<path fill="#FFFFFF" d="M100,88.3c0,0,1.2-2,2.9-6.2c1.8-4.1,2.2-6.5,2.2-6.5l0,0l3.2,1l-0.9,3l15.5,5.3l1.8-4.3l4.1,1.7l0,0
				c0,0,0.3,1-3,9.3c-3.4,8.3-4.3,8.8-4.3,8.8l0,0l-4.2-1.7l1.8-4.3L104.4,87l-1.5,2.8L100,88.3L100,88.3z"/>
			<path fill="#FFFFFF" d="M105.6,73.6c0,0,0.3-2.4,0.4-6.9c0-4.6-0.4-6.9-0.4-6.9l0,0l3.2-0.2l0.3,3.1l16.3-1.1V57h4.5l0,0
				c0,0,0.7,0.8,0.7,9.8c0,9-0.7,9.8-0.7,9.8l0,0h-4.5v-4.6l-16.3-1.1l-0.3,3.1L105.6,73.6L105.6,73.6z"/>
			<path fill="#FFFFFF" d="M105.2,57.8c0,0-0.6-2.3-2.2-6.5c-1.7-4.2-2.9-6.3-2.9-6.3l0,0l2.9-1.5l1.4,2.8l14.7-7.4l-1.8-4.3
				l4.2-1.8l0,0c0,0,0.9,0.6,4.2,8.8c3.4,8.3,3.1,9.3,3.1,9.3l0,0l-4.2,1.7l-1.8-4.3l-15.5,5.4l0.9,3L105.2,57.8L105.2,57.8z"/>
			<path fill="#FFFFFF" d="M98.8,43.5c0,0-1.4-1.9-4.5-5.2c-3.2-3.2-5-4.6-5-4.6l0,0l2.1-2.6l2.4,2l10.8-12.6l-3.2-3.3l3.2-3.2l0,0
				c0,0,1.1,0.1,7.2,6.5c6.2,6.4,6.3,7.4,6.3,7.4l0,0l-3.2,3.2l-3.2-3.3l-12.3,11l2,2.4L98.8,43.5L98.8,43.5z"/>
			<path fill="#FFFFFF" d="M87.6,32.6c0,0-2-1.2-6.1-3c-4.1-1.8-6.4-2.3-6.4-2.3l0,0l1-3.1l3,0.9l5.2-15.8l-4.2-1.8l1.7-4.2l0,0
				c0,0,1-0.3,9.1,3.1c8.2,3.4,8.6,4.3,8.6,4.3l0,0L97.9,15l-4.2-1.8l-7.2,15l2.7,1.4L87.6,32.6L87.6,32.6z"/>
			<path fill="#FFFFFF" d="M49.2,50c0,0-0.9,1-2.5,3.4c-1.5,2.3-2.1,3.6-2.1,3.6l0,0l-1.8-1l0.9-1.7l-8.7-5.1l-1.5,2.4L31.2,50l0,0
				c0,0,0-0.6,2.9-5.2c3-4.6,3.6-4.7,3.6-4.7l0,0l2.2,1.6L38.5,44l7.9,6.2l1.2-1.5L49.2,50L49.2,50z"/>
			<path fill="#FFFFFF" d="M44.2,58.1c0,0-0.5,1.3-1,4.1c-0.5,2.8-0.5,4.2-0.5,4.2l0,0l-2-0.2l0.2-1.9l-9.9-1.3l-0.5,2.8l-2.7-0.6
				l0,0c0,0-0.3-0.6,0.7-6c1.1-5.4,1.5-5.7,1.5-5.7l0,0l2.7,0.5l-0.5,2.8l9.7,2.7l0.5-1.9L44.2,58.1L44.2,58.1z"/>
			<path fill="#FFFFFF" d="M42.6,67.5c0,0,0.1,1.4,0.6,4.2c0.5,2.8,1,4.1,1,4.1l0,0l-1.9,0.6l-0.5-1.8l-9.6,2.6l0.5,2.8L30,80.4l0,0
				c0,0-0.5-0.4-1.5-5.7c-1.1-5.4-0.8-6-0.8-6l0,0l2.7-0.6l0.5,2.8l9.9-1.3l-0.2-2L42.6,67.5L42.6,67.5z"/>
			<path fill="#FFFFFF" d="M44.7,76.9c0,0,0.6,1.3,2.1,3.5c1.5,2.3,2.5,3.4,2.5,3.4l0,0L47.7,85l-1.2-1.5l-7.9,6.2l1.5,2.4l-2.2,1.6
				l0,0c0,0-0.6-0.2-3.6-4.7c-3-4.6-2.9-5.2-2.9-5.2l0,0l2.3-1.6l1.5,2.4l8.6-5l-0.9-1.7L44.7,76.9L44.7,76.9z"/>
			<path fill="#FFFFFF" d="M50.1,84.6c0,0,1.1,0.9,3.3,2.5c2.2,1.6,3.5,2.1,3.5,2.1l0,0L56,91l-1.7-0.9l-5,8.9l2.4,1.6l-1.5,2.4l0,0
				c0,0-0.6,0.1-5.1-3c-4.5-3.1-4.7-3.7-4.7-3.7l0,0l1.5-2.3l2.3,1.6l6.1-8.1l-1.5-1.3L50.1,84.6L50.1,84.6z"/>
			<path fill="#FFFFFF" d="M58,89.7c0,0,1.3,0.5,4,1c2.6,0.6,4.1,0.6,4.1,0.6l0,0l-0.2,2L64,93.2l-1.2,10.2l2.7,0.6l-0.5,2.8l0,0
				c0,0-0.5,0.3-5.8-0.8c-5.3-1-5.7-1.6-5.7-1.6l0,0l0.5-2.8l2.8,0.6l2.5-9.8l-1.8-0.6L58,89.7L58,89.7z"/>
			<path fill="#FFFFFF" d="M67.3,91.3c0,0,1.4-0.1,4.1-0.6c2.7-0.6,4-1.1,4-1.1l0,0l0.5,2l-1.9,0.6l2.6,9.9l2.8-0.6l0.5,2.7l0,0
				c0,0-0.5,0.6-5.7,1.6c-5.2,1.1-5.8,0.8-5.8,0.8l0,0l-0.5-2.8l2.7-0.6l-1.3-10.2l-1.9,0.2L67.3,91.3L67.3,91.3z"/>
			<path fill="#FFFFFF" d="M76.5,89.3c0,0,1.2-0.6,3.5-2.1c2.3-1.6,3.3-2.6,3.3-2.6l0,0l1.2,1.7l-1.5,1.2l6.1,8.1l2.3-1.6l1.5,2.3
				l0,0c0,0-0.2,0.6-4.6,3.7c-4.5,3.1-5.1,3-5.1,3l0,0l-1.5-2.4l2.3-1.6l-5-8.8l-1.7,0.9L76.5,89.3L76.5,89.3z"/>
			<path fill="#FFFFFF" d="M84.2,83.8c0,0,0.9-1.1,2.5-3.4c1.5-2.2,2.1-3.5,2.1-3.5l0,0l1.8,0.9l-0.9,1.7l8.7,5l1.5-2.4l2.3,1.5l0,0
				c0,0,0,0.7-2.9,5.2c-3,4.6-3.6,4.8-3.6,4.8l0,0l-2.2-1.6l1.5-2.4l-7.9-6.2L85.7,85L84.2,83.8L84.2,83.8z"/>
			<path fill="#FFFFFF" d="M89.3,75.8c0,0,0.5-1.4,1-4.1c0.5-2.8,0.6-4.2,0.6-4.2l0,0l1.9,0.2l-0.2,2l9.9,1.3l0.5-2.8l2.7,0.6l0,0
				c0,0,0.2,0.5-0.8,6c-1.1,5.3-1.5,5.7-1.5,5.7l0,0l-2.7-0.6l0.5-2.7l-9.6-2.7l-0.5,1.9L89.3,75.8L89.3,75.8z"/>
			<path fill="#FFFFFF" d="M90.9,66.2c0,0-0.1-1.4-0.6-4.2c-0.5-2.8-1-4.1-1-4.1l0,0l1.9-0.6l0.5,1.8l9.6-2.6l-0.5-2.8l2.7-0.5l0,0
				c0,0,0.5,0.4,1.5,5.7c1.1,5.4,0.8,6,0.8,6l0,0l-2.7,0.6l-0.5-2.8L92.6,64l0.2,2L90.9,66.2L90.9,66.2z"/>
			<path fill="#FFFFFF" d="M88.8,56.8c0,0-0.6-1.3-2.1-3.6c-1.5-2.4-2.5-3.4-2.5-3.4l0,0l1.6-1.3l1.2,1.5l7.9-6.2l-1.5-2.4l2.3-1.6
				l0,0c0,0,0.6,0.2,3.5,4.7c3,4.6,2.9,5.2,2.9,5.2l0,0l-2.2,1.6L98.3,49l-8.6,5.1l0.9,1.7L88.8,56.8L88.8,56.8z"/>
			<path fill="#FFFFFF" d="M83.3,48.9c0,0-1.1-0.9-3.3-2.5c-2.2-1.6-3.5-2.1-3.5-2.1l0,0l1-1.8l1.6,0.9l5-8.9L81.8,33l1.5-2.4l0,0
				c0,0,0.6,0,5.1,3c4.5,3.1,4.6,3.7,4.6,3.7l0,0l-1.5,2.3L89.2,38l-6.1,8.1l1.5,1.3L83.3,48.9L83.3,48.9z"/>
			<path fill="#FFFFFF" d="M75.3,43.8c0,0-1.3-0.5-3.9-1.1c-2.7-0.5-4.2-0.5-4.2-0.5l0,0l0.2-2l1.9,0.2l1.3-10.1l-2.8-0.5l0.5-2.8
				l0,0c0,0,0.5-0.3,5.8,0.8c5.3,1,5.7,1.5,5.7,1.5l0,0l-0.5,2.8l-2.8-0.5l-2.5,9.9l1.8,0.5L75.3,43.8L75.3,43.8z"/>
			<path fill="#FFFFFF" d="M66.1,42.2c0,0-1.5,0.1-4.1,0.6c-2.7,0.6-4,1.1-4,1.1l0,0l-0.6-2l1.9-0.5l-2.6-9.9L53.9,32l-0.5-2.8l0,0
				c0,0,0.4-0.5,5.6-1.6c5.2-1,5.9-0.7,5.9-0.7l0,0l0.5,2.8l-2.8,0.6l1.3,10.1l1.9-0.2L66.1,42.2L66.1,42.2z"/>
			<path fill="#FFFFFF" d="M56.8,44.4c0,0-1.2,0.6-3.5,2.1C51,48.1,50,49.1,50,49.1l0,0l-1.2-1.7l1.5-1.2l-6.1-8.1l-2.3,1.6
				l-1.5-2.4l0,0c0,0,0.2-0.6,4.6-3.6c4.5-3.1,5.2-3,5.2-3l0,0l1.5,2.4l-2.3,1.6l5,8.8l1.7-0.9L56.8,44.4L56.8,44.4z"/>
			<path fill="#FFFFFF" d="M54.1,58.8c0,0-0.5,0.7-1.1,2.3c-0.7,1.6-0.8,2.4-0.8,2.4l0,0L51,63.2l0.3-1.1l-5.8-2l-0.7,1.6l-1.5-0.6
				l0,0c0,0-0.1-0.4,1.2-3.5c1.2-3.1,1.6-3.3,1.6-3.3l0,0l1.5,0.6L47,56.6l5.5,2.8l0.5-1.1L54.1,58.8L54.1,58.8z"/>
			<path fill="#FFFFFF" d="M52,64.4c0,0-0.1,0.9-0.1,2.5c-0.1,1.7,0.2,2.6,0.2,2.6l0,0l-1.2,0.2l-0.2-1.3l-6.1,0.5v1.7h-1.7l0,0
				c0,0-0.2-0.3-0.2-3.6c0-3.4,0.2-3.7,0.2-3.7l0,0h1.7V65l6.1,0.4l0.1-1.2L52,64.4L52,64.4z"/>
			<path fill="#FFFFFF" d="M52.3,70.2c0,0,0.2,0.9,0.8,2.4c0.6,1.6,1.1,2.4,1.1,2.4l0,0l-1.1,0.5l-0.5-1L47,77.3l0.7,1.6l-1.5,0.7
				l0,0c0,0-0.4-0.2-1.6-3.3c-1.2-3.1-1.2-3.5-1.2-3.5l0,0l1.5-0.7l0.7,1.7l5.8-2L51,70.6L52.3,70.2L52.3,70.2z"/>
			<path fill="#FFFFFF" d="M54.6,75.5c0,0,0.5,0.7,1.7,1.9c1.2,1.3,1.9,1.7,1.9,1.7l0,0l-0.8,0.9l-0.8-0.7L52.4,84l1.2,1.2l-1.2,1.3
				l0,0c0,0-0.4-0.1-2.8-2.4c-2.3-2.4-2.3-2.8-2.3-2.8l0,0l1.2-1.2l1.2,1.2l4.6-4l-0.8-0.9L54.6,75.5L54.6,75.5z"/>
			<path fill="#FFFFFF" d="M58.7,79.5c0,0,0.8,0.4,2.3,1c1.5,0.7,2.4,0.9,2.4,0.9l0,0l-0.4,1.2l-1.2-0.3L60,88.2l1.6,0.7l-0.7,1.6
				l0,0c0,0-0.4,0.1-3.4-1.2c-3-1.3-3.2-1.7-3.2-1.7l0,0l0.7-1.6l1.5,0.7l2.7-5.7l-1-0.6L58.7,79.5L58.7,79.5z"/>
			<path fill="#FFFFFF" d="M64.1,81.6c0,0,0.9,0.2,2.5,0.2c1.7,0,2.5-0.2,2.5-0.2l0,0l0.1,1.3l-1.2,0.1l0.5,6.3l1.7-0.1v1.7l0,0
				c0,0-0.3,0.3-3.6,0.3c-3.2,0-3.5-0.3-3.5-0.3l0,0v-1.7h1.7l0.4-6.3L64,82.8L64.1,81.6L64.1,81.6z"/>
			<path fill="#FFFFFF" d="M69.8,81.4c0,0,0.8-0.2,2.4-0.9c1.5-0.6,2.3-1,2.3-1l0,0l0.5,1l-1,0.6l2.7,5.7l1.5-0.7l0.7,1.6l0,0
				c0,0-0.2,0.4-3.2,1.7c-3,1.3-3.4,1.2-3.4,1.2l0,0l-0.7-1.6l1.6-0.7l-2-5.9l-1.1,0.4L69.8,81.4L69.8,81.4z"/>
			<path fill="#FFFFFF" d="M75.1,79.1c0,0,0.7-0.5,1.9-1.7c1.2-1.2,1.7-1.9,1.7-1.9l0,0l0.9,0.8l-0.8,0.9l4.6,4l1.2-1.3l1.2,1.3l0,0
				c0,0,0,0.4-2.3,2.8c-2.3,2.4-2.7,2.4-2.7,2.4l0,0l-1.2-1.3l1.2-1.3l-4.1-4.6L75.9,80L75.1,79.1L75.1,79.1z"/>
			<path fill="#FFFFFF" d="M79.1,74.9c0,0,0.5-0.8,1.1-2.3c0.7-1.6,0.8-2.5,0.8-2.5l0,0l1.2,0.4l-0.3,1.2l5.8,2l0.7-1.6l1.5,0.6l0,0
				c0,0,0.1,0.4-1.2,3.5c-1.2,3.1-1.6,3.3-1.6,3.3l0,0l-1.5-0.6l0.7-1.7l-5.6-2.8l-0.5,1L79.1,74.9L79.1,74.9z"/>
			<path fill="#FFFFFF" d="M81.2,69.4c0,0,0.2-0.9,0.2-2.5c0-1.7-0.2-2.6-0.2-2.6l0,0l1.2-0.2l0.1,1.2l6.2-0.4v-1.7h1.7l0,0
				c0,0,0.2,0.3,0.2,3.6c0,3.4-0.2,3.7-0.2,3.7l0,0h-1.7v-1.7l-6.2-0.5l-0.1,1.2L81.2,69.4L81.2,69.4z"/>
			<path fill="#FFFFFF" d="M81.1,63.5c0,0-0.2-0.9-0.8-2.4c-0.7-1.6-1.2-2.3-1.2-2.3l0,0l1.2-0.6l0.5,1.1l5.5-2.8l-0.7-1.6l1.5-0.7
				l0,0c0,0,0.4,0.2,1.6,3.3c1.3,3.1,1.2,3.5,1.2,3.5l0,0l-1.5,0.7l-0.7-1.7l-5.8,2l0.4,1.1L81.1,63.5L81.1,63.5z"/>
			<path fill="#FFFFFF" d="M78.7,58.1c0,0-0.5-0.6-1.7-1.9c-1.2-1.2-1.9-1.7-1.9-1.7l0,0l0.8-0.9l0.8,0.8l4.1-4.7l-1.2-1.3l1.2-1.2
				l0,0c0,0,0.4,0,2.8,2.4c2.3,2.4,2.3,2.8,2.3,2.8l0,0l-1.2,1.3l-1.2-1.3l-4.6,4.2l0.8,0.9L78.7,58.1L78.7,58.1z"/>
			<path fill="#FFFFFF" d="M74.5,54c0,0-0.7-0.5-2.2-1.1c-1.5-0.7-2.4-0.9-2.4-0.9l0,0l0.4-1.2l1.1,0.3l1.9-5.9l-1.5-0.7l0.6-1.6
				l0,0c0,0,0.4-0.1,3.4,1.2c3.1,1.3,3.2,1.7,3.2,1.7l0,0l-0.6,1.6l-1.6-0.7L74,52.4l1.1,0.6L74.5,54L74.5,54z"/>
			<path fill="#FFFFFF" d="M69.1,51.9c0,0-0.8-0.1-2.5-0.2c-1.7,0-2.5,0.2-2.5,0.2l0,0l-0.2-1.3l1.2-0.1l-0.4-6.2H63v-1.7l0,0
				c0,0,0.3-0.2,3.5-0.2c3.3-0.1,3.6,0.2,3.6,0.2l0,0v1.7l-1.7,0.1L68,50.6l1.2,0.1L69.1,51.9L69.1,51.9z"/>
			<path fill="#FFFFFF" d="M63.3,52.1c0,0-0.8,0.2-2.4,0.9c-1.5,0.7-2.2,1.2-2.2,1.2l0,0L58,53l1.1-0.6l-2.8-5.7l-1.5,0.7l-0.6-1.6
				l0,0c0,0,0.2-0.4,3.2-1.7c3.1-1.3,3.4-1.2,3.4-1.2l0,0l0.7,1.6l-1.6,0.7l2,5.9l1.1-0.4L63.3,52.1L63.3,52.1z"/>
			<path fill="#FFFFFF" d="M58,54.5c0,0-0.7,0.5-1.8,1.7c-1.2,1.2-1.7,2-1.7,2l0,0l-1-0.9l0.8-0.9l-4.6-4.1l-1.2,1.2l-1.2-1.2l0,0
				c0,0,0.1-0.4,2.4-2.8c2.3-2.4,2.7-2.4,2.7-2.4l0,0l1.2,1.2l-1.2,1.3l4,4.7l0.9-0.8L58,54.5L58,54.5z"/>
		</g>
	</g>
</g>
</svg>
