<?xml version="1.0" encoding="utf-8"?>
<!-- Generator: Adobe Illustrator 23.0.3, SVG Export Plug-In . SVG Version: 6.00 Build 0)  -->
<svg version="1.1" xmlns="http://www.w3.org/2000/svg" xmlns:xlink="http://www.w3.org/1999/xlink" x="0px" y="0px"
	 viewBox="0 0 161.8 180.7" style="enable-background:new 0 0 161.8 180.7;" xml:space="preserve">
<style type="text/css">
	.st0{fill:#FFFFFF;}
</style>
<g id="Layer_1">
</g>
<g id="Capa_2">
	<path class="st0" d="M130.2,149.9c-6.4,6.1-12.4,12.4-18.8,18.5c-2.7,3-6.4,5.5-10.3,7c-10.9,3.9-20.9,2.4-29.4-5.8
		c-20.3-19.7-40-39.7-60.1-59.8C0.9,99.2,0.9,81.6,11.6,71l0,0c20-20,39.7-39.7,59.8-59.8c10.6-10.6,27.9-10.6,38.8,0
		c13.3,13.3,26.7,26.7,40,40c10.6,10.6,10.6,27.6,0.3,38.2c-12.1,12.7-24.9,25.2-37.3,37.6c-0.6,0.6-0.9,0.9-1.2,1.5
		c-1.2,0.6-1.2,1.2,0,2.4c5.8,5.8,11.5,11.5,17.3,17.3C129.9,148.7,130.5,149,130.2,149.9z M130.2,71c0-0.6-0.6-0.9-1.2-1.5
		l-36.7-37c-0.9-0.9-1.5-1.2-2.4,0C71,51.6,51.9,70.4,33.1,89.2c-0.9,0.9-0.9,1.5,0,2.4c19.1,18.8,37.9,37.9,56.7,56.7
		c0.9,0.9,1.5,0.9,2.4,0c5.8-5.8,11.5-11.5,17.3-17.3c0.9-0.9,0.9-1.5,0-2.4c-5.8-5.8-11.5-11.5-17.3-17.3c-0.9-0.9-1.2-1.5,0-2.7
		c12.1-12.1,24.6-24.6,36.7-36.7L130.2,71z"/>
</g>
</svg>
