<?xml version="1.0" encoding="utf-8"?>
<!-- Generator: Adobe Illustrator 23.0.3, SVG Export Plug-In . SVG Version: 6.00 Build 0)  -->
<svg version="1.1" id="Capa_1" xmlns="http://www.w3.org/2000/svg" xmlns:xlink="http://www.w3.org/1999/xlink" x="0px" y="0px"
	 viewBox="0 0 100 42" style="enable-background:new 0 0 100 42;" xml:space="preserve">
<style type="text/css">
	.st0{fill-rule:evenodd;clip-rule:evenodd;fill:#FFFFFF;}
</style>
<path class="st0" d="M77.7,16.6c-0.1,0.7-0.4,1.6-0.6,2.5c-0.3,0.9-0.7,1.9-1.1,2.9c-0.5,1-1,2-1.5,2.8c-0.5,0.8-1,1.6-1.5,2.2
	c-0.5,0.6-0.9,1-1.3,1.3c-0.3,0.2-0.4,0.2-0.5,0.2c0,0,0,0-0.1,0c0,0-0.2-0.1-0.3-0.6c-0.1-0.5,0-1.1,0.1-1.8
	c0.1-0.8,0.4-1.6,0.6-2.6c0.3-0.9,0.7-1.9,1.1-3c0.4-1,0.9-2,1.4-2.8c0.5-0.9,1-1.6,1.5-2.1c0.5-0.6,0.9-1,1.3-1.2
	c0.3-0.2,0.4-0.2,0.5-0.2c0,0,0,0,0.1,0c0,0,0.2,0.1,0.3,0.6C77.9,15.3,77.8,15.9,77.7,16.6 M58.6,16.6c-0.1,0.7-0.4,1.6-0.6,2.5
	c-0.3,0.9-0.7,1.9-1.1,2.9c-0.5,1-1,2-1.5,2.8c-0.5,0.8-1,1.6-1.5,2.2c-0.5,0.6-0.9,1-1.3,1.3c-0.3,0.2-0.4,0.2-0.5,0.2
	c0,0,0,0-0.1,0c0,0-0.2-0.1-0.3-0.6c-0.1-0.5,0-1.1,0.1-1.8c0.1-0.8,0.4-1.6,0.6-2.6c0.3-0.9,0.7-1.9,1.1-3c0.4-1,0.9-2,1.4-2.8
	c0.5-0.9,1-1.6,1.5-2.1c0.5-0.6,0.9-1,1.3-1.2c0.3-0.2,0.4-0.2,0.5-0.2c0,0,0,0,0.1,0c0,0,0.2,0.1,0.3,0.6
	C58.7,15.3,58.7,15.9,58.6,16.6 M37.8,16.4c-0.1,0.8-0.2,1.6-0.5,2.6c-0.2,0.9-0.6,1.9-1,2.9c-0.4,1-0.8,2-1.3,2.8
	c-0.4,0.8-0.9,1.6-1.3,2.1c-0.4,0.6-0.8,1-1.2,1.2c-0.3,0.2-0.4,0.2-0.5,0.2c0,0,0,0-0.1,0c0,0-0.2-0.1-0.3-0.6
	c-0.1-0.5-0.1-1.1,0-1.8c0.1-0.7,0.2-1.6,0.5-2.5c0.2-0.9,0.6-1.9,1-2.9c0.4-1,0.8-2,1.3-2.8c0.4-0.8,0.9-1.6,1.3-2.2
	c0.4-0.6,0.8-1,1.2-1.3c0.3-0.2,0.4-0.2,0.5-0.2c0,0,0,0,0.1,0c0.1,0,0.2,0.1,0.3,0.7C37.9,15,37.9,15.7,37.8,16.4 M79.8,10.1
	c1,0,1.9,0.3,2.6,0.9c0.7,0.6,1.2,1.4,1.4,2.5c0.3,1,0.3,2.3,0.2,3.7c-0.2,1.4-0.6,3-1.2,4.8c-0.6,1.7-1.3,3.1-2.1,4.4
	c-0.4,0.6-0.8,1.2-1.2,1.7c-0.1,0.1,0,0.2,0.1,0.1c0.2-0.1,0.5-0.3,0.7-0.4c0.5-0.3,1-0.7,1.5-1.1c1.3-1.1,2.3-2.5,2.7-4.1
	c0.3-1,0.6-1.9,0.9-2.9c0.5-1.6,1.1-3,1.7-4.3c0.6-1.3,1.1-2.3,1.5-2.9c0.4-0.7,1-1.2,1.8-1.3c0.7-0.2,1.4-0.1,2.1,0
	c0.7,0.2,1.2,0.5,1.6,1c0.4,0.5,0.5,1.1,0.3,1.7c-0.1,0.2-0.3,0.7-0.6,1.4c-0.3,0.7-0.7,1.5-1.1,2.5c-0.4,1-0.8,2-1.2,3.1
	c-0.4,1.1-0.7,2.1-0.9,3c-0.2,0.9-0.3,1.6-0.2,2.2c0,0.5,0.2,0.5,0.4,0.5c0.2,0,0.4-0.1,0.9-0.4c0.4-0.3,0.8-0.8,1.3-1.2
	c0.4-0.5,0.9-1,1.3-1.5c0.4-0.5,0.7-0.9,0.9-1.3c0.2-0.3,0.6-0.5,1-0.5c0.4,0,0.8,0.2,1,0.5c0.2,0.3,0.2,0.7,0,1
	c-0.3,0.4-0.7,1.1-1.4,2.2c-0.7,1-1.5,2.1-2.5,3.1c-1,1.1-2,2-3.1,2.8c-1.2,0.8-2.4,1.3-3.5,1.3c-1,0-1.8-0.4-2.3-1.1
	c-0.5-0.7-0.7-1.5-0.7-2.6v-0.2c0-0.1-0.1-0.2-0.2-0.1c-0.2,0.2-0.4,0.4-0.7,0.5c-1.4,1-2.9,1.9-4.7,2.6c-1.6,0.6-3.3,0.9-5.1,0.9
	l-0.4,0l-0.4,0c-1.2,0-2.2-0.4-2.7-1.2c-0.1-0.1-0.2-0.3-0.3-0.4c-0.1-0.1-0.2-0.1-0.3,0c-0.2,0.6-0.4,1.2-0.5,1.8
	C67.7,34,67.4,35,67.1,36c-0.3,1-0.5,1.9-0.7,2.6c-0.2,0.7-0.3,1.4-0.4,1.8l0,0c-0.2,0.8-0.7,1.1-1.2,1.3c-0.2,0-0.4,0.1-0.6,0.1
	c-0.4,0-0.8-0.1-1.2-0.2c-0.6-0.2-1.2-0.6-1.7-1.1c-0.5-0.6-0.8-1.3-0.8-2.1c0-0.2,0-0.5,0.4-1.9c0.2-1,0.6-2.2,1-3.7
	c0.3-1,0.6-2,0.9-3.2c0-0.1-0.1-0.2-0.2-0.2c-1.2,0.8-2.6,1.5-4.1,2.1c-1.6,0.6-3.3,0.9-5.1,0.9c-0.2,0-0.5,0-0.7,0
	c-1.2,0-2.2-0.4-2.7-1.2c-0.1-0.1-0.2-0.3-0.3-0.4c-0.1-0.1-0.2-0.1-0.3,0c-0.2,0.6-0.4,1.2-0.5,1.8C48.5,34,48.2,35,48,36
	c-0.3,1-0.5,1.9-0.7,2.6c-0.2,0.7-0.3,1.4-0.4,1.8l0,0c-0.2,0.8-0.7,1.1-1.2,1.3c-0.2,0-0.4,0.1-0.6,0.1c-0.4,0-0.8-0.1-1.2-0.2
	c-0.6-0.2-1.2-0.6-1.7-1.1c-0.5-0.6-0.8-1.3-0.8-2.1c0-0.2,0-0.5,0.4-1.9c0.2-1,0.6-2.2,1-3.7c0.2-0.8,0.5-1.8,0.8-2.7
	c0-0.1-0.1-0.3-0.3-0.2c-0.5,0.5-1,0.9-1.6,1.3c-1.2,0.8-2.3,1.3-3.5,1.3c-1,0-1.8-0.4-2.3-1.1c-0.2-0.3-0.4-0.6-0.5-1
	c-0.1-0.3-0.5-0.4-0.8-0.2c-0.3,0.4-0.7,0.7-1.1,1c-0.5,0.4-1.1,0.7-1.7,0.9c-0.7,0.2-1.4,0.4-2.1,0.4c-1,0-1.9-0.3-2.6-0.9
	c-0.7-0.6-1.2-1.4-1.6-2.5c-0.3-1-0.4-2.3-0.3-3.7c0.1-1.4,0.4-3,1-4.8c1.2-3.6,2.7-6.3,4.6-7.9c1.9-1.7,3.8-2.6,5.7-2.6
	c0.8,0,1.5,0.2,2,0.5c0.5,0.3,0.9,0.7,1.2,1.2c0.2,0.3,0.3,0.7,0.4,1.1c0,0.1,0.1,0.1,0.1,0c0.1-0.2,0.2-0.3,0.3-0.5
	c0.4-0.7,1-1.1,1.8-1.3c0.7-0.2,1.4-0.1,2,0c0.7,0.2,1.2,0.5,1.6,1c0.4,0.5,0.5,1.1,0.3,1.7c-0.1,0.2-0.3,0.6-0.6,1.4
	c-0.3,0.7-0.7,1.6-1.1,2.5c-0.4,1-0.8,2-1.2,3.1c-0.4,1.1-0.7,2.1-0.9,3c-0.2,0.9-0.3,1.6-0.2,2.2c0,0.5,0.2,0.5,0.4,0.5
	c0.2,0,0.4-0.1,0.9-0.4c0.2-0.2,0.5-0.4,0.7-0.7c1-0.9,1.6-2,2.1-3.2c0.6-1.7,1.2-3.4,1.8-5c0.7-1.7,1.3-3.2,1.9-4.6
	c0.3-0.7,0.8-1.1,1.5-1.4c0.6-0.2,1.3-0.3,1.9-0.1c0.6,0.1,1.2,0.4,1.7,0.8c0.2,0.2,0.4,0.4,0.5,0.5c0,0.1,0.1,0.1,0.1,0
	c0.6-0.5,1.2-1,1.8-1.4c1-0.6,2-0.9,3.2-0.9c1,0,1.9,0.3,2.6,0.9c0.7,0.6,1.2,1.4,1.4,2.5c0.3,1,0.3,2.3,0.2,3.7
	c-0.2,1.4-0.6,3-1.2,4.8c-0.6,1.7-1.3,3.1-2.1,4.4c-0.4,0.6-0.8,1.2-1.2,1.7c-0.1,0.1,0,0.2,0.1,0.1c0.2-0.1,0.5-0.3,0.7-0.4
	c0.4-0.2,0.7-0.5,1.1-0.8c1.3-1,2.3-2.4,2.8-3.9l0.2-0.6c0.6-1.8,1.3-3.6,1.9-5.3c0.7-1.7,1.3-3.2,1.9-4.6c0.3-0.7,0.8-1.1,1.5-1.4
	c0.6-0.2,1.3-0.3,1.9-0.1c0.6,0.1,1.2,0.4,1.7,0.8c0.2,0.2,0.4,0.4,0.5,0.5c0,0.1,0.1,0.1,0.1,0c0.6-0.5,1.2-1,1.8-1.4
	C77.5,10.4,78.6,10.1,79.8,10.1L79.8,10.1z M17,1.6c1.4,0,2.9,0.2,4.3,0.5C22.7,2.5,24,3,25.1,3.6c1.1,0.7,2.1,1.5,2.8,2.5
	c0.7,1,1.1,2.2,1.1,3.5c0,1.4-0.3,2.8-0.9,4c-0.6,1.2-1.5,2.3-2.5,3.2c-1.1,0.9-2.3,1.8-3.7,2.5c-1.2,0.6-2.4,1.1-3.7,1.5
	c-0.1,0-0.1,0.1-0.1,0.2c0,0.6,0.1,1.2,0.1,1.8c0.1,0.7,0.2,1.4,0.3,2c0.1,0.6,0.3,1.2,0.4,1.8c0.1,0.4,0.3,0.9,0.4,1.3
	c0.1,0.3,0.2,0.5,0.3,0.8c0.2,0.5,0.4,0.9,0.7,1.4c0.2,0.4,0.5,0.8,0.7,1.2c0.3,0.4,0.5,0.7,0.8,1c0.3,0.3,0.6,0.6,0.9,0.8
	c0.3,0.2,0.6,0.5,0.9,0.6c0.3,0.2,0.6,0.3,1,0.5c0.3,0.1,0.7,0.2,1,0.3c0.3,0.1,0.7,0.1,1,0.1c0.4,0,0.7,0,1.1,0
	c0.4,0,0.8-0.1,1.1-0.2c0.4-0.1,0.8-0.2,1.2-0.4c0.4-0.2,0.8-0.3,1.2-0.5c0.2-0.1,0.3-0.2,0.5-0.3c0.5-0.3,1.1-0.2,1.5,0.3
	c0.3,0.5,0.3,1.1-0.2,1.5c-0.2,0.2-0.4,0.4-0.6,0.5c-0.5,0.4-1,0.8-1.5,1.2c-0.5,0.3-1,0.6-1.5,0.9c-0.2,0.1-0.5,0.3-0.8,0.4
	c-0.5,0.2-1,0.5-1.5,0.6c-0.5,0.2-1,0.3-1.5,0.4c-0.5,0.1-1,0.2-1.4,0.2c-0.3,0-0.7,0.1-1,0.1c-0.1,0-0.3,0-0.4,0
	c-0.5,0-0.9-0.1-1.4-0.2c-0.2,0-0.4-0.1-0.7-0.2c-0.2-0.1-0.4-0.1-0.6-0.2c-0.4-0.1-0.8-0.3-1.2-0.5c-0.4-0.2-0.8-0.4-1.1-0.7
	c-0.3-0.2-0.6-0.5-0.8-0.7c-0.3-0.3-0.6-0.6-0.9-1c-0.3-0.4-0.6-0.7-0.8-1.1c-0.3-0.4-0.5-0.8-0.7-1.3c-0.2-0.4-0.4-0.9-0.6-1.4
	c-0.2-0.5-0.4-1-0.5-1.5c-0.2-0.5-0.3-1.1-0.4-1.6c-0.1-0.6-0.2-1.1-0.3-1.7c-0.1-0.5-0.2-1-0.2-1.6c0-0.2-0.3-0.2-0.3,0
	c-0.2,0.7-0.4,1.4-0.6,2c-0.2,0.8-0.4,1.6-0.6,2.2c-0.2,0.7-0.3,1.2-0.4,1.6c-0.1,0.7-0.6,1.1-1.3,1.3c-0.6,0.1-1.3,0.1-2-0.2
	c-0.7-0.2-1.3-0.6-1.9-1.1c-0.6-0.6-0.9-1.3-0.9-2.1c0-0.7,0.2-1.7,0.5-3.3C5.3,24.8,5.8,23,6.4,21c0.6-2,1.4-4.1,2.3-6.4
	c0.8-2,1.6-4,2.5-5.9c0.3-0.6,0.9-1.1,1.6-1.2c1.6-0.2,3-0.1,4.2,0.1c0.7,0.2,1.1,0.9,0.8,1.6c-0.8,1.7-1.5,3.4-2.1,5
	c-0.5,1.3-1,2.6-1.5,3.9c0,0.1,0.1,0.2,0.2,0.2c0.6-0.3,1.2-0.6,1.8-1c1-0.6,1.9-1.4,2.6-2.2c0.8-0.8,1.4-1.8,1.9-2.8
	c0.5-1,0.7-2.1,0.7-3.3c0-1.5-0.4-2.6-1.2-3.3c-0.8-0.7-2-1-3.5-1c-1.6,0-3,0.4-4.3,1.1C11.2,6.6,10,7.5,9.1,8.6
	C8.2,9.7,7.5,10.8,6.9,12c-0.5,1.2-0.8,2.2-0.8,3.1c0,0.6-0.3,1.1-0.9,1.3c-0.5,0.2-1.1,0.1-1.7-0.1C3,16.1,2.4,15.7,2,15
	c-0.5-0.6-0.7-1.4-0.7-2.5c0-0.9,0.3-1.9,1.1-3.2C3,8.1,4,6.9,5.3,5.8c1.3-1.1,3-2.1,4.9-2.9C12.2,2,14.5,1.6,17,1.6L17,1.6z
	 M95.3,0.7c2.2,0,4,1.8,4,3.9c0,2.2-1.8,3.9-4,3.9s-4-1.8-4-3.9C91.3,2.5,93.1,0.7,95.3,0.7z"/>
</svg>
