<?xml version="1.0" standalone="no"?>
<!DOCTYPE svg PUBLIC "-//W3C//DTD SVG 20010904//EN"
    "http://www.w3.org/TR/2001/REC-SVG-20010904/DTD/svg10.dtd">
<svg version="1.0" xmlns="http://www.w3.org/2000/svg"
    width="2165.000000pt" height="695.000000pt" viewBox="0 0 2165.000000 695.000000"
    preserveAspectRatio="xMidYMid meet">

<g transform="translate(0.000000,695.000000) scale(0.100000,-0.100000)"
fill="#ffffff" stroke="none">
<path d="M7457 6795 c-577 -73 -1097 -312 -1867 -859 -308 -218 -502 -372
-950 -750 -529 -447 -746 -619 -980 -776 -825 -552 -1558 -642 -2305 -281
-307 148 -533 306 -914 638 -96 84 -177 151 -179 148 -6 -6 45 -245 93 -430
134 -518 349 -1046 613 -1505 686 -1194 1599 -2007 2767 -2465 470 -184 924
-293 1470 -352 204 -22 876 -25 1090 -5 349 33 739 99 1040 177 1592 411 2868
1364 3471 2592 l75 152 89 -177 c105 -210 193 -358 312 -525 431 -605 1008
-1103 1743 -1500 614 -332 1374 -579 2080 -677 516 -71 1082 -80 1560 -24
1044 121 2005 527 2790 1179 332 275 618 578 895 946 560 746 937 1575 1124
2469 29 135 31 159 18 147 -10 -7 -89 -77 -178 -154 -428 -373 -725 -568
-1074 -706 -253 -100 -464 -140 -730 -140 -315 0 -580 62 -911 212 -390 177
-721 414 -1486 1064 -427 361 -657 543 -963 759 -623 439 -1060 665 -1505 778
-245 62 -354 75 -640 75 -281 0 -380 -11 -622 -71 -565 -138 -985 -388 -2023
-1203 -179 -140 -346 -268 -372 -284 -62 -39 -122 -45 -179 -20 -24 11 -109
71 -189 134 -816 639 -1129 867 -1454 1053 -332 191 -683 317 -1036 372 -145
22 -530 28 -673 9z"/>
</g>
</svg>
