<?xml version="1.0" encoding="utf-8"?>
<!-- Generator: Adobe Illustrator 23.0.3, SVG Export Plug-In . SVG Version: 6.00 Build 0)  -->
<svg version="1.1" id="Capa_1" xmlns="http://www.w3.org/2000/svg" xmlns:xlink="http://www.w3.org/1999/xlink" x="0px" y="0px"
	 viewBox="0 0 163 34" style="enable-background:new 0 0 163 34;" xml:space="preserve">
<style type="text/css">
	.st0{fill:#FFFFFF;}
</style>
<path class="st0" d="M36.3,31.7h8.2L46.7,19c0.3-2.1,1.7-3.5,3.7-3.5c1.9,0.1,2.7,1.5,2.3,3.5l-2.2,12.7h8.2L60.8,19
	C62,12.4,60,8.5,54.7,8.5c-2.7,0-5,0.9-6.9,3.4L48.4,9h-8.2L36.3,31.7L36.3,31.7z"/>
<path class="st0" d="M111.5,31.7h8.7l2.3-12.8c0.4-2.1,1.7-3.5,3.9-3.5c2,0.1,2.8,1.5,2.4,3.5l-2.3,12.7h8.7l2.3-12.7
	c1.2-6.5-0.9-10.5-6.4-10.5c-2.8,0-5.3,0.9-7.2,3.4l0.5-2.9h-8.7L111.5,31.7L111.5,31.7z"/>
<path class="st0" d="M163,9h-8.1l-2.1,12.8c-0.3,2.1-1.6,3.5-3.6,3.5c-1.8-0.1-2.6-1.5-2.2-3.5L149.1,9H141l-2.1,12.7
	c-1.1,6.5,0.8,10.5,6,10.5c2.6,0,4.9-0.9,6.7-3.4l-0.5,2.9h8.1L163,9L163,9z"/>
<path class="st0" d="M75.6,8.5c-7.4,0-12.5,4.8-13.6,12c-1.2,7.3,3.6,12.6,10.6,12.5c7,0,12.6-4.6,13.5-13
	C86.9,13.4,82.2,8.5,75.6,8.5z M78,20.8c-0.5,3.1-2.3,5.3-5,5.3c-2.3,0-3.4-2.6-2.9-5.7c0.4-2.7,2.4-5,4.8-5
	C77.4,15.5,78.4,17.9,78,20.8z"/>
<path class="st0" d="M101.2,8.5c-7.6,0-12.8,4.8-13.9,12C86.1,27.8,91,33.1,98.1,33c7.1,0,12.9-4.6,13.8-13
	C112.7,13.4,107.9,8.5,101.2,8.5z M103.5,20.8c-0.4,3.1-2.3,5.3-4.9,5.3c-2.3,0-3.5-2.6-3-5.7c0.5-2.7,2.5-5,4.8-5
	C102.9,15.5,104,17.9,103.5,20.8z"/>
<path class="st0" d="M22.1,33.1c8.8,0,14.1-4.9,14.1-11c0-9.5-15.5-8.6-15.5-11.8c0-1.1,1.2-2.2,3.5-2.2c3.7,0,7.5,2.1,9.1,3.8
	l4.8-6c-3.4-3.1-8.6-5-13.8-5c-10.6,0-13.5,0-24.1,0v0.3c1.1,5,4.2,8,9.7,9.5c-1.4,0.3-2.8,1-3.8,1.7c1.9,3.3,7.5,6,13.8,7.8
	c3.4,1.1,6.5,1.8,6.5,3.5C26.3,25,25,26,23,26c-4.4,0-9.1-2.7-11.1-4.8l-5.2,6.3C10.5,31.1,16.4,33.1,22.1,33.1L22.1,33.1z"/>
</svg>
