<?xml version="1.0" encoding="utf-8"?>
<!-- Generator: Adobe Illustrator 23.0.3, SVG Export Plug-In . SVG Version: 6.00 Build 0)  -->
<svg version="1.1" id="Capa_1" xmlns="http://www.w3.org/2000/svg" xmlns:xlink="http://www.w3.org/1999/xlink" x="0px" y="0px"
	 viewBox="0 0 38 32.2" style="enable-background:new 0 0 38 32.2;" xml:space="preserve">
<style type="text/css">
	.st0{fill:#FFFFFF;}
</style>
<path class="st0" d="M22.1,32.2c8.8,0,14.1-4.9,14.1-11c0-9.5-15.5-8.6-15.5-11.8c0-1.1,1.2-2.2,3.5-2.2c3.7,0,7.5,2.1,9.1,3.8L38,5
	c-3.4-3.1-8.6-5-13.8-5C13.5,0,10.6,0,0,0l0,0.3c1.1,5,4.2,8,9.7,9.5c-1.4,0.3-2.8,1-3.8,1.7c1.9,3.3,7.5,6,13.8,7.8
	c3.4,1.1,6.5,1.8,6.5,3.5c0,1.2-1.3,2.2-3.3,2.2c-4.4,0-9.1-2.7-11.1-4.8l-5.2,6.3C10.5,30.2,16.4,32.2,22.1,32.2L22.1,32.2z"/>
</svg>
