<?xml version="1.0" encoding="utf-8"?>
<!-- Generator: Adobe Illustrator 23.0.3, SVG Export Plug-In . SVG Version: 6.00 Build 0)  -->
<svg version="1.0" id="Capa_1" xmlns="http://www.w3.org/2000/svg" xmlns:xlink="http://www.w3.org/1999/xlink" x="0px" y="0px"
	 viewBox="0 0 333.3 299.5" enable-background="new 0 0 333.3 299.5" xml:space="preserve">
<path fill="#FFFFFF" d="M327.5,257.3c-5.9,2.3-38.3,9.8-73.6,1.1c-1.4-0.4-0.5-1.2-0.2-1.6c33.1-30.3,51.5-67,51.5-104.2
	c0-12.9-1.9-26.6-8-39.2c0,0.1,0,0.1,0,0.2c-5.9-12.2-26.1-46.1-103.8-46.1h-0.4c-17.2,0.1-35.2,1-53.9,2.9
	c-1.5,0.2-2.4-0.5-1.4-2.5c13.2-24.4,29-44.9,45.9-60.4c1.1-1.1,0.2-2.3-0.5-2.8c-8.9-5.9-27.5-5.2-46.5,2.8
	c-12.6,5.4-22.8,12.9-28.8,20.3C96.7,42.4,86.7,59,78.1,77.2c-0.7,1.5-2,2.1-2.5,2.1C56,83,37,87.5,19,92.5
	c-5.7,1.9-7.4,4.4-8.1,5.6c-1.5,2.8-2.8,5.7-4.2,8.8c-8.8,22-8.3,43.5,1.2,49.9c2.9,1.5,5.6-0.3,7.3-1.1c13-6.5,26.5-12.8,40.7-18.7
	c0.2-0.1,0.9-0.4,0.9,0.7c-4.2,18-6.3,35.5-6.3,51.9c0,85,49.8,109.8,101.1,109.8c4.3,0,8.6-0.2,13-0.7c15.7-1.6,32-6.3,47.7-13.9
	c1-0.6,1.9-0.4,2.5-0.3c53.8,12.2,91.1-1.8,108.9-11.9C337.3,264.9,333.4,255.1,327.5,257.3z M216.8,232.2c-1.6,1.5-3,0.4-3.4-0.4
	c-6.9-10.5-9.2-21.6-10.1-28.5c-0.6-4.5-3.1-18.2-28.9-18.2c-22.4,0-24.4,18.5-24.7,22c-1.7,19.3,8.4,37.8,21.7,51.9
	c1.3,1.4,0.3,2.2-0.2,2.3c-52.1,15.7-62.2-12.7-63.8-17.6c-4.1-12.8-5.2-28.2-5.2-39.3c0-50.5,4.9-111.5,91.7-111.5
	c12.6,0,48.2-1.1,63.3,23.8C276.2,148.5,253.5,198.1,216.8,232.2z"/>
</svg>
