<?xml version="1.0" encoding="utf-8"?>
<!-- Generator: Adobe Illustrator 23.0.3, SVG Export Plug-In . SVG Version: 6.00 Build 0)  -->
<svg version="1.1" id="Capa_1" xmlns="http://www.w3.org/2000/svg" xmlns:xlink="http://www.w3.org/1999/xlink" x="0px" y="0px"
	 viewBox="0 0 14.1 27.2" style="enable-background:new 0 0 14.1 27.2;" xml:space="preserve">
<style type="text/css">
	.st0{fill:#FFFFFF;}
</style>
<path class="st0" d="M14.1,8.1L7,4.1L0,8.1V4.1L7,0l7,4.1L14.1,8.1L14.1,8.1z"/>
<path class="st0" d="M0,11.5h3.7v8.9c0,2.3,1.7,3.4,3.3,3.4c1.6,0,3.3-1.2,3.3-3.5v-8.9h3.7v9.2c0,2.1-0.7,3.8-2,4.9
	c-1.3,1.1-3,1.7-5.1,1.7c-2,0-3.7-0.5-5-1.7c-1.3-1.1-2-2.7-2-4.8C0,20.8,0,11.5,0,11.5z"/>
</svg>
